<?xml version="1.0" encoding="utf-8"?>
<!-- Generator: Adobe Illustrator 27.5.0, SVG Export Plug-In . SVG Version: 6.00 Build 0)  -->
<svg version="1.1" xmlns="http://www.w3.org/2000/svg" xmlns:xlink="http://www.w3.org/1999/xlink" x="0px" y="0px"
	 viewBox="0 0 2200 2200" style="enable-background:new 0 0 2200 2200;" xml:space="preserve">
<g id="background">
	<rect style="fill:#FFFFFF;" width="2200" height="2200"/>
</g>
<g id="Objects">
	<g>
		<ellipse style="fill:#D8D8D8;" cx="1123.406" cy="1874.437" rx="637.98" ry="35.443"/>
		<g>
			<path style="fill:#4E5AFF;" d="M1680.229,290.997L858.534,426.221c-31.386,5.165-54.417,32.296-54.417,64.104v866.527
				c-43.885-28.016-100.333-44.877-161.928-44.877c-139.774,0-253.084,86.79-253.084,193.851
				c0,107.061,113.309,193.851,253.084,193.851s253.084-86.79,253.084-193.851V712.215l769.316-126.604v614.635
				c-43.885-28.016-100.333-44.877-161.928-44.877c-139.774,0-253.084,86.79-253.084,193.851
				c0,107.061,113.309,193.851,253.084,193.851s253.084-86.79,253.084-193.851V355.101
				C1755.745,315.01,1719.789,284.487,1680.229,290.997z"/>
			<g>
				<path style="fill:#FFFFFF;" d="M1251.169,452.682c4.577,20.432-8.528,40.631-29.052,44.779
					c-96.448,19.495-248.758,46.048-352.952,61.66c-10.611,1.59-20.219-6.569-20.262-17.298
					c-0.058-14.227,1.921-32.808,11.086-44.591c14.125-18.161,39.105-22.264,59.072-25.401
					c51.121-8.03,189.305-30.394,288.779-48.482c19.733-3.588,38.78,9.028,43.164,28.599L1251.169,452.682z"/>
			</g>
			<circle style="fill:#FFFFFF;" cx="1347.316" cy="438.805" r="38.6"/>
			<g>
				<path style="fill:#FFFFFF;" d="M634.338,1368.344L634.338,1368.344c0,5.613-4.071,10.431-9.62,11.277
					c-33.456,5.099-65.159,21.409-88.62,45.819c-16.638,17.311-29.039,38.609-36.188,61.524
					c-3.344,10.718-13.019,18.245-24.242,18.548c-0.17,0.005-0.341,0.009-0.511,0.014c-17.917,0.499-30.989-16.598-25.899-33.784
					c7.785-26.284,24.444-50.938,48.19-70.262c32.667-26.585,78.309-42.743,124.954-44.552
					C628.907,1356.675,634.338,1361.834,634.338,1368.344z"/>
			</g>
			<g>
				<path style="fill:#FFFFFF;" d="M1488.261,1211.75L1488.261,1211.75c0,5.613-4.071,10.431-9.62,11.277
					c-33.456,5.099-65.159,21.409-88.62,45.819c-16.638,17.311-29.039,38.609-36.188,61.524
					c-3.344,10.718-13.019,18.244-24.242,18.548c-0.171,0.005-0.341,0.009-0.511,0.014c-17.917,0.499-30.989-16.598-25.899-33.784
					c7.785-26.284,24.444-50.938,48.19-70.262c32.667-26.585,78.309-42.743,124.954-44.552
					C1482.831,1200.082,1488.261,1205.24,1488.261,1211.75z"/>
			</g>
		</g>
	</g>
</g>
</svg>
